<svg preserveAspectRatio="none" overflow="visible" style="display: block;" width="5.63698" height="7.64092" viewBox="0 0 5.63698 7.64092" fill="none" xmlns="http://www.w3.org/2000/svg">
<path id="Vector" d="M1.98242 7.43466C1.43753 7.21064 0.991804 6.79747 0.727247 6.27109L1.70334 5.59855C1.8507 5.91599 2.09415 6.179 2.39918 6.35041C2.68954 6.50212 3.02479 6.5428 3.34251 6.46488C3.67426 6.40077 3.97094 6.21772 4.17715 5.95007C4.27674 5.82614 4.34688 5.68103 4.38195 5.52582C4.41701 5.37067 4.41631 5.2095 4.37914 5.05471C4.34828 4.89479 4.28025 4.74442 4.17995 4.61607C4.07965 4.48765 3.95061 4.38475 3.80262 4.31588C3.47017 4.15786 3.09353 4.12097 2.73653 4.21152L2.12031 4.34457L1.89117 3.28339L2.44722 3.16332C2.76178 3.10595 3.04654 2.94162 3.25344 2.69817C3.34953 2.58364 3.41686 2.44778 3.44912 2.30204C3.48209 2.15629 3.47929 2.00487 3.44141 1.86031C3.41757 1.72811 3.36356 1.60326 3.2829 1.49567C3.20224 1.38815 3.09774 1.30083 2.9778 1.24072C2.71269 1.11216 2.4099 1.08194 2.12423 1.15537C1.84782 1.19949 1.5987 1.34769 1.42799 1.56953C1.2793 1.77833 1.18594 2.02142 1.15662 2.27609L0 2.06315C0.0638948 1.61203 0.254176 1.18819 0.548962 0.840735C0.89593 0.434782 1.37363 0.162509 1.8998 0.0708396C2.30252 -0.0230738 2.7218 -0.023633 3.12439 0.0692985C3.4877 0.152762 3.82085 0.333572 4.08877 0.592378C4.34898 0.847045 4.52713 1.17396 4.59937 1.53081C4.68424 1.86937 4.66109 2.22601 4.53344 2.55089C4.41632 2.84076 4.23045 3.09788 3.99198 3.30023L4.00601 3.36602C4.37984 3.43335 4.72772 3.60132 5.01318 3.85185C5.30916 4.1162 5.50905 4.47088 5.5834 4.86077C5.67528 5.2574 5.64862 5.67247 5.50624 6.05402C5.35966 6.43465 5.11277 6.76871 4.79225 7.02093C4.44086 7.29909 4.02846 7.49021 3.5887 7.57858C3.05145 7.69655 2.49035 7.64626 1.98242 7.43466Z" fill="#4285F4"/>
</svg>
